<?xml version="1.0" encoding="UTF-8" standalone="no"?>
<!DOCTYPE svg PUBLIC "-//W3C//DTD SVG 1.1//EN"
 "http://www.w3.org/Graphics/SVG/1.1/DTD/svg11.dtd">
<!-- Generated by graphviz version 2.38.0 (20140413.2041)
 -->
<!-- Pages: 1 -->
<svg width="1663pt" height="980pt"
 viewBox="0.00 0.00 1662.64 980.00" xmlns="http://www.w3.org/2000/svg" xmlns:xlink="http://www.w3.org/1999/xlink">
<g id="graph0" class="graph" transform="scale(1 1) rotate(0) translate(4 976)">
<polygon fill="white" stroke="none" points="-4,4 -4,-976 1658.64,-976 1658.64,4 -4,4"/>
<!-- expression/conditional -->
<g id="node1" class="node"><title>expression/conditional</title>
<ellipse fill="none" stroke="black" cx="486" cy="-450" rx="115.88" ry="18"/>
<text text-anchor="middle" x="486" y="-446.3" font-family="Times,serif" font-size="14.00">expression/conditional</text>
</g>
<!-- expression -->
<g id="node45" class="node"><title>expression</title>
<ellipse fill="none" stroke="black" cx="819" cy="-234" rx="61.1893" ry="18"/>
<text text-anchor="middle" x="819" y="-230.3" font-family="Times,serif" font-size="14.00">expression</text>
</g>
<!-- expression/conditional&#45;&gt;expression -->
<g id="edge1" class="edge"><title>expression/conditional&#45;&gt;expression</title>
<path fill="none" stroke="black" d="M524.082,-432.858C572.644,-411.429 658.202,-370.796 724,-324 738.727,-313.526 772.127,-281.407 795.124,-258.773"/>
<polygon fill="black" stroke="black" points="797.826,-261.023 802.481,-251.505 792.907,-256.042 797.826,-261.023"/>
</g>
<!-- xml -->
<g id="node2" class="node"><title>xml</title>
<ellipse fill="none" stroke="black" cx="195" cy="-378" rx="27.8951" ry="18"/>
<text text-anchor="middle" x="195" y="-374.3" font-family="Times,serif" font-size="14.00">xml</text>
</g>
<!-- error -->
<g id="node35" class="node"><title>error</title>
<ellipse fill="none" stroke="black" cx="1262" cy="-90" rx="34.394" ry="18"/>
<text text-anchor="middle" x="1262" y="-86.3" font-family="Times,serif" font-size="14.00">error</text>
</g>
<!-- xml&#45;&gt;error -->
<g id="edge4" class="edge"><title>xml&#45;&gt;error</title>
<path fill="none" stroke="black" d="M222.991,-376.27C377.079,-372.148 1116.47,-351.016 1156,-324 1226.42,-275.879 1250.83,-168.958 1258.64,-118.444"/>
<polygon fill="black" stroke="black" points="1262.14,-118.678 1260.1,-108.282 1255.21,-117.681 1262.14,-118.678"/>
</g>
<!-- Boost -->
<g id="node41" class="node"><title>Boost</title>
<ellipse fill="none" stroke="black" cx="1042" cy="-90" rx="37.0935" ry="18"/>
<text text-anchor="middle" x="1042" y="-86.3" font-family="Times,serif" font-size="14.00">Boost</text>
</g>
<!-- xml&#45;&gt;Boost -->
<g id="edge2" class="edge"><title>xml&#45;&gt;Boost</title>
<path fill="none" stroke="black" d="M192.968,-359.826C191.63,-339.883 192.761,-307.268 211,-288 321.098,-171.686 837.173,-111.391 995.618,-95.4"/>
<polygon fill="black" stroke="black" points="996.361,-98.8434 1005.96,-94.3678 995.666,-91.878 996.361,-98.8434"/>
</g>
<!-- LibXML -->
<g id="node44" class="node"><title>LibXML</title>
<ellipse fill="none" stroke="black" cx="115" cy="-306" rx="48.9926" ry="18"/>
<text text-anchor="middle" x="115" y="-302.3" font-family="Times,serif" font-size="14.00">LibXML</text>
</g>
<!-- xml&#45;&gt;LibXML -->
<g id="edge3" class="edge"><title>xml&#45;&gt;LibXML</title>
<path fill="none" stroke="black" d="M178.811,-362.834C167.95,-353.331 153.406,-340.605 140.946,-329.703"/>
<polygon fill="black" stroke="black" points="142.949,-326.805 133.119,-322.854 138.34,-332.073 142.949,-326.805"/>
</g>
<!-- ccf_group -->
<g id="node3" class="node"><title>ccf_group</title>
<ellipse fill="none" stroke="black" cx="853" cy="-450" rx="57.3905" ry="18"/>
<text text-anchor="middle" x="853" y="-446.3" font-family="Times,serif" font-size="14.00">ccf_group</text>
</g>
<!-- event -->
<g id="node12" class="node"><title>event</title>
<ellipse fill="none" stroke="black" cx="883" cy="-306" rx="36.2938" ry="18"/>
<text text-anchor="middle" x="883" y="-302.3" font-family="Times,serif" font-size="14.00">event</text>
</g>
<!-- ccf_group&#45;&gt;event -->
<g id="edge5" class="edge"><title>ccf_group&#45;&gt;event</title>
<path fill="none" stroke="black" d="M856.619,-431.871C861.754,-407.564 871.207,-362.819 877.293,-334.013"/>
<polygon fill="black" stroke="black" points="880.726,-334.697 879.368,-324.189 873.877,-333.25 880.726,-334.697"/>
</g>
<!-- expression/numerical -->
<g id="node31" class="node"><title>expression/numerical</title>
<ellipse fill="none" stroke="black" cx="1037" cy="-378" rx="110.48" ry="18"/>
<text text-anchor="middle" x="1037" y="-374.3" font-family="Times,serif" font-size="14.00">expression/numerical</text>
</g>
<!-- ccf_group&#45;&gt;expression/numerical -->
<g id="edge6" class="edge"><title>ccf_group&#45;&gt;expression/numerical</title>
<path fill="none" stroke="black" d="M888.042,-435.669C915.823,-425.1 955.029,-410.185 986.245,-398.309"/>
<polygon fill="black" stroke="black" points="987.553,-401.556 995.655,-394.729 985.064,-395.014 987.553,-401.556"/>
</g>
<!-- env -->
<g id="node4" class="node"><title>env</title>
<ellipse fill="none" stroke="black" cx="122" cy="-378" rx="27.0966" ry="18"/>
<text text-anchor="middle" x="122" y="-374.3" font-family="Times,serif" font-size="14.00">env</text>
</g>
<!-- STL -->
<g id="node29" class="node"><title>STL</title>
<ellipse fill="none" stroke="black" cx="118" cy="-18" rx="28.6953" ry="18"/>
<text text-anchor="middle" x="118" y="-14.3" font-family="Times,serif" font-size="14.00">STL</text>
</g>
<!-- env&#45;&gt;STL -->
<g id="edge7" class="edge"><title>env&#45;&gt;STL</title>
<path fill="none" stroke="black" d="M101.84,-365.716C87.1329,-356.424 67.9331,-341.891 57,-324 35.9095,-289.487 38,-275.447 38,-235 38,-235 38,-235 38,-161 38,-113.56 72.3123,-67.3534 95.9941,-41.1117"/>
<polygon fill="black" stroke="black" points="98.7054,-43.3358 102.953,-33.6295 93.5795,-38.5687 98.7054,-43.3358"/>
</g>
<!-- parameter -->
<g id="node5" class="node"><title>parameter</title>
<ellipse fill="none" stroke="black" cx="718" cy="-450" rx="59.5901" ry="18"/>
<text text-anchor="middle" x="718" y="-446.3" font-family="Times,serif" font-size="14.00">parameter</text>
</g>
<!-- parameter&#45;&gt;expression -->
<g id="edge8" class="edge"><title>parameter&#45;&gt;expression</title>
<path fill="none" stroke="black" d="M750.197,-434.66C766.243,-425.83 784.431,-412.934 795,-396 820.788,-354.681 822.731,-296.025 821.248,-262.103"/>
<polygon fill="black" stroke="black" points="824.736,-261.795 820.671,-252.011 817.747,-262.195 824.736,-261.795"/>
</g>
<!-- event_tree_analysis -->
<g id="node6" class="node"><title>event_tree_analysis</title>
<ellipse fill="none" stroke="black" cx="1111" cy="-594" rx="102.882" ry="18"/>
<text text-anchor="middle" x="1111" y="-590.3" font-family="Times,serif" font-size="14.00">event_tree_analysis</text>
</g>
<!-- analysis -->
<g id="node8" class="node"><title>analysis</title>
<ellipse fill="none" stroke="black" cx="1329" cy="-522" rx="48.1917" ry="18"/>
<text text-anchor="middle" x="1329" y="-518.3" font-family="Times,serif" font-size="14.00">analysis</text>
</g>
<!-- event_tree_analysis&#45;&gt;analysis -->
<g id="edge10" class="edge"><title>event_tree_analysis&#45;&gt;analysis</title>
<path fill="none" stroke="black" d="M1158.03,-577.897C1195.22,-565.958 1246.81,-549.392 1283.57,-537.588"/>
<polygon fill="black" stroke="black" points="1285.07,-540.782 1293.52,-534.393 1282.93,-534.118 1285.07,-540.782"/>
</g>
<!-- event_tree -->
<g id="node9" class="node"><title>event_tree</title>
<ellipse fill="none" stroke="black" cx="922" cy="-522" rx="60.3893" ry="18"/>
<text text-anchor="middle" x="922" y="-518.3" font-family="Times,serif" font-size="14.00">event_tree</text>
</g>
<!-- event_tree_analysis&#45;&gt;event_tree -->
<g id="edge11" class="edge"><title>event_tree_analysis&#45;&gt;event_tree</title>
<path fill="none" stroke="black" d="M1069.05,-577.465C1039.12,-566.38 998.882,-551.475 968.06,-540.059"/>
<polygon fill="black" stroke="black" points="969.003,-536.676 958.41,-536.485 966.571,-543.24 969.003,-536.676"/>
</g>
<!-- expression/test_event -->
<g id="node27" class="node"><title>expression/test_event</title>
<ellipse fill="none" stroke="black" cx="1113" cy="-522" rx="112.38" ry="18"/>
<text text-anchor="middle" x="1113" y="-518.3" font-family="Times,serif" font-size="14.00">expression/test_event</text>
</g>
<!-- event_tree_analysis&#45;&gt;expression/test_event -->
<g id="edge9" class="edge"><title>event_tree_analysis&#45;&gt;expression/test_event</title>
<path fill="none" stroke="black" d="M1111.49,-575.697C1111.71,-567.983 1111.98,-558.712 1112.23,-550.112"/>
<polygon fill="black" stroke="black" points="1115.72,-550.2 1112.51,-540.104 1108.73,-550 1115.72,-550.2"/>
</g>
<!-- event_tree_analysis&#45;&gt;expression/numerical -->
<g id="edge12" class="edge"><title>event_tree_analysis&#45;&gt;expression/numerical</title>
<path fill="none" stroke="black" d="M1176.83,-580.046C1198.79,-572.251 1220.96,-559.813 1234,-540 1242.79,-526.634 1241.71,-518.021 1234,-504 1204.61,-450.537 1141.6,-416.714 1094.72,-397.927"/>
<polygon fill="black" stroke="black" points="1095.86,-394.617 1085.27,-394.257 1093.33,-401.141 1095.86,-394.617"/>
</g>
<!-- random -->
<g id="node7" class="node"><title>random</title>
<ellipse fill="none" stroke="black" cx="118" cy="-162" rx="46.2923" ry="18"/>
<text text-anchor="middle" x="118" y="-158.3" font-family="Times,serif" font-size="14.00">random</text>
</g>
<!-- random&#45;&gt;STL -->
<g id="edge13" class="edge"><title>random&#45;&gt;STL</title>
<path fill="none" stroke="black" d="M118,-143.871C118,-119.67 118,-75.2108 118,-46.3932"/>
<polygon fill="black" stroke="black" points="121.5,-46.1892 118,-36.1893 114.5,-46.1893 121.5,-46.1892"/>
</g>
<!-- random&#45;&gt;Boost -->
<g id="edge14" class="edge"><title>random&#45;&gt;Boost</title>
<path fill="none" stroke="black" d="M152.293,-149.917C160.627,-147.605 169.568,-145.436 178,-144 485.958,-91.5548 863.461,-89.3353 994.521,-90.3544"/>
<polygon fill="black" stroke="black" points="994.59,-93.8551 1004.62,-90.4434 994.652,-86.8554 994.59,-93.8551"/>
</g>
<!-- settings -->
<g id="node20" class="node"><title>settings</title>
<ellipse fill="none" stroke="black" cx="1251" cy="-378" rx="48.1917" ry="18"/>
<text text-anchor="middle" x="1251" y="-374.3" font-family="Times,serif" font-size="14.00">settings</text>
</g>
<!-- analysis&#45;&gt;settings -->
<g id="edge15" class="edge"><title>analysis&#45;&gt;settings</title>
<path fill="none" stroke="black" d="M1306.12,-505.941C1293.58,-496.504 1278.83,-483.254 1270,-468 1259.08,-449.138 1254.42,-424.766 1252.43,-406.296"/>
<polygon fill="black" stroke="black" points="1255.91,-405.846 1251.55,-396.189 1248.93,-406.457 1255.91,-405.846"/>
</g>
<!-- event_tree&#45;&gt;event -->
<g id="edge16" class="edge"><title>event_tree&#45;&gt;event</title>
<path fill="none" stroke="black" d="M922.668,-503.819C923.078,-485.807 922.917,-456.737 919,-432 913.505,-397.3 901.394,-358.614 892.738,-333.6"/>
<polygon fill="black" stroke="black" points="896.009,-332.352 889.383,-324.085 889.408,-334.68 896.009,-332.352"/>
</g>
<!-- fault_tree -->
<g id="node10" class="node"><title>fault_tree</title>
<ellipse fill="none" stroke="black" cx="712" cy="-522" rx="55.7903" ry="18"/>
<text text-anchor="middle" x="712" y="-518.3" font-family="Times,serif" font-size="14.00">fault_tree</text>
</g>
<!-- fault_tree&#45;&gt;ccf_group -->
<g id="edge17" class="edge"><title>fault_tree&#45;&gt;ccf_group</title>
<path fill="none" stroke="black" d="M741.215,-506.496C762.484,-495.937 791.493,-481.535 814.629,-470.049"/>
<polygon fill="black" stroke="black" points="816.422,-473.067 823.822,-465.485 813.309,-466.797 816.422,-473.067"/>
</g>
<!-- fault_tree&#45;&gt;parameter -->
<g id="edge18" class="edge"><title>fault_tree&#45;&gt;parameter</title>
<path fill="none" stroke="black" d="M713.483,-503.697C714.144,-495.983 714.939,-486.712 715.676,-478.112"/>
<polygon fill="black" stroke="black" points="719.167,-478.367 716.534,-468.104 712.193,-477.769 719.167,-478.367"/>
</g>
<!-- importance_analysis -->
<g id="node11" class="node"><title>importance_analysis</title>
<ellipse fill="none" stroke="black" cx="1259" cy="-738" rx="106.681" ry="18"/>
<text text-anchor="middle" x="1259" y="-734.3" font-family="Times,serif" font-size="14.00">importance_analysis</text>
</g>
<!-- probability_analysis -->
<g id="node22" class="node"><title>probability_analysis</title>
<ellipse fill="none" stroke="black" cx="1143" cy="-666" rx="103.982" ry="18"/>
<text text-anchor="middle" x="1143" y="-662.3" font-family="Times,serif" font-size="14.00">probability_analysis</text>
</g>
<!-- importance_analysis&#45;&gt;probability_analysis -->
<g id="edge19" class="edge"><title>importance_analysis&#45;&gt;probability_analysis</title>
<path fill="none" stroke="black" d="M1231.8,-720.588C1216.06,-711.091 1196.06,-699.02 1179.03,-688.741"/>
<polygon fill="black" stroke="black" points="1180.8,-685.722 1170.43,-683.552 1177.18,-691.715 1180.8,-685.722"/>
</g>
<!-- event&#45;&gt;expression -->
<g id="edge20" class="edge"><title>event&#45;&gt;expression</title>
<path fill="none" stroke="black" d="M868.477,-289.116C860.446,-280.331 850.295,-269.229 841.281,-259.37"/>
<polygon fill="black" stroke="black" points="843.688,-256.816 834.358,-251.797 838.522,-261.539 843.688,-256.816"/>
</g>
<!-- fault_tree_analysis -->
<g id="node13" class="node"><title>fault_tree_analysis</title>
<ellipse fill="none" stroke="black" cx="1330" cy="-594" rx="98.5829" ry="18"/>
<text text-anchor="middle" x="1330" y="-590.3" font-family="Times,serif" font-size="14.00">fault_tree_analysis</text>
</g>
<!-- fault_tree_analysis&#45;&gt;analysis -->
<g id="edge22" class="edge"><title>fault_tree_analysis&#45;&gt;analysis</title>
<path fill="none" stroke="black" d="M1329.75,-575.697C1329.64,-567.983 1329.51,-558.712 1329.39,-550.112"/>
<polygon fill="black" stroke="black" points="1332.89,-550.053 1329.24,-540.104 1325.89,-550.153 1332.89,-550.053"/>
</g>
<!-- preprocessor -->
<g id="node28" class="node"><title>preprocessor</title>
<ellipse fill="none" stroke="black" cx="1427" cy="-450" rx="72.2875" ry="18"/>
<text text-anchor="middle" x="1427" y="-446.3" font-family="Times,serif" font-size="14.00">preprocessor</text>
</g>
<!-- fault_tree_analysis&#45;&gt;preprocessor -->
<g id="edge23" class="edge"><title>fault_tree_analysis&#45;&gt;preprocessor</title>
<path fill="none" stroke="black" d="M1405.05,-582.105C1429.9,-574.53 1455.01,-561.705 1470,-540 1484.17,-519.491 1468.41,-493.604 1452.13,-475.044"/>
<polygon fill="black" stroke="black" points="1454.57,-472.529 1445.21,-467.575 1449.44,-477.288 1454.57,-472.529"/>
</g>
<!-- zbdd -->
<g id="node38" class="node"><title>zbdd</title>
<ellipse fill="none" stroke="black" cx="1428" cy="-522" rx="33.2948" ry="18"/>
<text text-anchor="middle" x="1428" y="-518.3" font-family="Times,serif" font-size="14.00">zbdd</text>
</g>
<!-- fault_tree_analysis&#45;&gt;zbdd -->
<g id="edge21" class="edge"><title>fault_tree_analysis&#45;&gt;zbdd</title>
<path fill="none" stroke="black" d="M1353.22,-576.411C1367.32,-566.34 1385.41,-553.425 1400.26,-542.818"/>
<polygon fill="black" stroke="black" points="1402.47,-545.539 1408.57,-536.878 1398.4,-539.842 1402.47,-545.539"/>
</g>
<!-- expression/constant -->
<g id="node14" class="node"><title>expression/constant</title>
<ellipse fill="none" stroke="black" cx="1042" cy="-306" rx="104.782" ry="18"/>
<text text-anchor="middle" x="1042" y="-302.3" font-family="Times,serif" font-size="14.00">expression/constant</text>
</g>
<!-- expression/constant&#45;&gt;expression -->
<g id="edge24" class="edge"><title>expression/constant&#45;&gt;expression</title>
<path fill="none" stroke="black" d="M994.161,-289.983C957.272,-278.404 906.403,-262.436 868.986,-250.691"/>
<polygon fill="black" stroke="black" points="869.886,-247.305 859.297,-247.649 867.79,-253.984 869.886,-247.305"/>
</g>
<!-- expression/boolean -->
<g id="node15" class="node"><title>expression/boolean</title>
<ellipse fill="none" stroke="black" cx="615" cy="-306" rx="100.182" ry="18"/>
<text text-anchor="middle" x="615" y="-302.3" font-family="Times,serif" font-size="14.00">expression/boolean</text>
</g>
<!-- expression/boolean&#45;&gt;expression -->
<g id="edge25" class="edge"><title>expression/boolean&#45;&gt;expression</title>
<path fill="none" stroke="black" d="M659.265,-289.811C692.221,-278.502 737.168,-263.08 770.989,-251.474"/>
<polygon fill="black" stroke="black" points="772.335,-254.713 780.657,-248.157 770.063,-248.092 772.335,-254.713"/>
</g>
<!-- serialization -->
<g id="node16" class="node"><title>serialization</title>
<ellipse fill="none" stroke="black" cx="764" cy="-666" rx="67.6881" ry="18"/>
<text text-anchor="middle" x="764" y="-662.3" font-family="Times,serif" font-size="14.00">serialization</text>
</g>
<!-- model -->
<g id="node17" class="node"><title>model</title>
<ellipse fill="none" stroke="black" cx="892" cy="-594" rx="38.9931" ry="18"/>
<text text-anchor="middle" x="892" y="-590.3" font-family="Times,serif" font-size="14.00">model</text>
</g>
<!-- serialization&#45;&gt;model -->
<g id="edge27" class="edge"><title>serialization&#45;&gt;model</title>
<path fill="none" stroke="black" d="M792.407,-649.465C811.952,-638.776 837.989,-624.537 858.539,-613.299"/>
<polygon fill="black" stroke="black" points="860.458,-616.239 867.552,-608.37 857.099,-610.097 860.458,-616.239"/>
</g>
<!-- expression/exponential -->
<g id="node26" class="node"><title>expression/exponential</title>
<ellipse fill="none" stroke="black" cx="591" cy="-594" rx="118.079" ry="18"/>
<text text-anchor="middle" x="591" y="-590.3" font-family="Times,serif" font-size="14.00">expression/exponential</text>
</g>
<!-- serialization&#45;&gt;expression/exponential -->
<g id="edge28" class="edge"><title>serialization&#45;&gt;expression/exponential</title>
<path fill="none" stroke="black" d="M728.573,-650.666C702.995,-640.316 668.133,-626.21 639.904,-614.788"/>
<polygon fill="black" stroke="black" points="641.191,-611.533 630.608,-611.026 638.565,-618.022 641.191,-611.533"/>
</g>
<!-- xml_stream -->
<g id="node36" class="node"><title>xml_stream</title>
<ellipse fill="none" stroke="black" cx="1589" cy="-594" rx="65.7887" ry="18"/>
<text text-anchor="middle" x="1589" y="-590.3" font-family="Times,serif" font-size="14.00">xml_stream</text>
</g>
<!-- serialization&#45;&gt;xml_stream -->
<g id="edge26" class="edge"><title>serialization&#45;&gt;xml_stream</title>
<path fill="none" stroke="black" d="M828.885,-660.706C979.128,-650.671 1347.5,-625.51 1471,-612 1488.11,-610.128 1506.56,-607.678 1523.67,-605.223"/>
<polygon fill="black" stroke="black" points="1524.18,-608.686 1533.57,-603.781 1523.17,-601.759 1524.18,-608.686"/>
</g>
<!-- model&#45;&gt;event_tree -->
<g id="edge30" class="edge"><title>model&#45;&gt;event_tree</title>
<path fill="none" stroke="black" d="M899.262,-576.055C902.675,-568.091 906.824,-558.411 910.639,-549.51"/>
<polygon fill="black" stroke="black" points="913.874,-550.845 914.596,-540.275 907.44,-548.088 913.874,-550.845"/>
</g>
<!-- model&#45;&gt;fault_tree -->
<g id="edge31" class="edge"><title>model&#45;&gt;fault_tree</title>
<path fill="none" stroke="black" d="M863.08,-581.753C834.136,-570.497 789.234,-553.035 755.895,-540.07"/>
<polygon fill="black" stroke="black" points="756.975,-536.735 746.387,-536.373 754.438,-543.259 756.975,-536.735"/>
</g>
<!-- model&#45;&gt;expression/test_event -->
<g id="edge29" class="edge"><title>model&#45;&gt;expression/test_event</title>
<path fill="none" stroke="black" d="M923.195,-583.119C957.304,-572.316 1012.72,-554.763 1054.89,-541.406"/>
<polygon fill="black" stroke="black" points="1056.01,-544.722 1064.49,-538.366 1053.9,-538.049 1056.01,-544.722"/>
</g>
<!-- pdag -->
<g id="node18" class="node"><title>pdag</title>
<ellipse fill="none" stroke="black" cx="1353" cy="-378" rx="33.5952" ry="18"/>
<text text-anchor="middle" x="1353" y="-374.3" font-family="Times,serif" font-size="14.00">pdag</text>
</g>
<!-- pdag&#45;&gt;event -->
<g id="edge32" class="edge"><title>pdag&#45;&gt;event</title>
<path fill="none" stroke="black" d="M1327.67,-366.083C1321.34,-363.735 1314.51,-361.509 1308,-360 1142.74,-321.683 1093.26,-362.317 928,-324 925.178,-323.346 922.295,-322.557 919.418,-321.681"/>
<polygon fill="black" stroke="black" points="920.359,-318.305 909.765,-318.443 918.133,-324.942 920.359,-318.305"/>
</g>
<!-- logger -->
<g id="node40" class="node"><title>logger</title>
<ellipse fill="none" stroke="black" cx="1357" cy="-234" rx="40.0939" ry="18"/>
<text text-anchor="middle" x="1357" y="-230.3" font-family="Times,serif" font-size="14.00">logger</text>
</g>
<!-- pdag&#45;&gt;logger -->
<g id="edge33" class="edge"><title>pdag&#45;&gt;logger</title>
<path fill="none" stroke="black" d="M1353.48,-359.871C1354.16,-335.67 1355.42,-291.211 1356.23,-262.393"/>
<polygon fill="black" stroke="black" points="1359.73,-262.284 1356.52,-252.189 1352.74,-262.087 1359.73,-262.284"/>
</g>
<!-- initializer -->
<g id="node19" class="node"><title>initializer</title>
<ellipse fill="none" stroke="black" cx="591" cy="-666" rx="55.4913" ry="18"/>
<text text-anchor="middle" x="591" y="-662.3" font-family="Times,serif" font-size="14.00">initializer</text>
</g>
<!-- initializer&#45;&gt;expression/conditional -->
<g id="edge34" class="edge"><title>initializer&#45;&gt;expression/conditional</title>
<path fill="none" stroke="black" d="M541.504,-657.906C513.702,-651.111 481.221,-637.847 464,-612 436.808,-571.187 456.691,-511.562 472.254,-477.494"/>
<polygon fill="black" stroke="black" points="475.543,-478.728 476.687,-468.195 469.224,-475.715 475.543,-478.728"/>
</g>
<!-- initializer&#45;&gt;xml -->
<g id="edge35" class="edge"><title>initializer&#45;&gt;xml</title>
<path fill="none" stroke="black" d="M536.79,-662.315C460.08,-657.405 325.242,-644.324 290,-612 228.983,-556.035 281.187,-504.935 242,-432 235.877,-420.604 226.851,-409.626 218.341,-400.645"/>
<polygon fill="black" stroke="black" points="220.603,-397.954 211.081,-393.307 215.626,-402.877 220.603,-397.954"/>
</g>
<!-- initializer&#45;&gt;env -->
<g id="edge41" class="edge"><title>initializer&#45;&gt;env</title>
<path fill="none" stroke="black" d="M537.654,-661.11C456.6,-654.425 306.986,-638.825 261,-612 190.253,-570.731 182.994,-541.074 146,-468 136.09,-448.426 129.912,-424.293 126.31,-406.097"/>
<polygon fill="black" stroke="black" points="129.731,-405.35 124.478,-396.149 122.847,-406.618 129.731,-405.35"/>
</g>
<!-- initializer&#45;&gt;expression/boolean -->
<g id="edge37" class="edge"><title>initializer&#45;&gt;expression/boolean</title>
<path fill="none" stroke="black" d="M540.01,-658.87C467.162,-646.948 342,-613.323 342,-523 342,-523 342,-523 342,-449 342,-401.225 475.249,-350.896 555.562,-324.9"/>
<polygon fill="black" stroke="black" points="557.104,-328.081 565.562,-321.7 554.971,-321.414 557.104,-328.081"/>
</g>
<!-- initializer&#45;&gt;model -->
<g id="edge42" class="edge"><title>initializer&#45;&gt;model</title>
<path fill="none" stroke="black" d="M637.222,-656.089C699.153,-644.016 805.705,-622.74 844,-612 846.969,-611.167 850.019,-610.246 853.074,-609.276"/>
<polygon fill="black" stroke="black" points="854.368,-612.534 862.753,-606.058 852.16,-605.892 854.368,-612.534"/>
</g>
<!-- initializer&#45;&gt;settings -->
<g id="edge38" class="edge"><title>initializer&#45;&gt;settings</title>
<path fill="none" stroke="black" d="M629.459,-653.061C655.619,-643.978 690.365,-629.982 718,-612 737.5,-599.312 738.183,-590.96 756,-576 797.117,-541.476 805.167,-528.383 853,-504 970.175,-444.269 1121.38,-406.38 1199.38,-389.402"/>
<polygon fill="black" stroke="black" points="1200.39,-392.765 1209.43,-387.242 1198.92,-385.921 1200.39,-392.765"/>
</g>
<!-- expression/random_deviate -->
<g id="node21" class="node"><title>expression/random_deviate</title>
<ellipse fill="none" stroke="black" cx="358" cy="-306" rx="138.375" ry="18"/>
<text text-anchor="middle" x="358" y="-302.3" font-family="Times,serif" font-size="14.00">expression/random_deviate</text>
</g>
<!-- initializer&#45;&gt;expression/random_deviate -->
<g id="edge39" class="edge"><title>initializer&#45;&gt;expression/random_deviate</title>
<path fill="none" stroke="black" d="M537.017,-662.023C453.881,-654.204 304,-625.845 304,-523 304,-523 304,-523 304,-449 304,-406.109 325.789,-360.411 341.686,-332.778"/>
<polygon fill="black" stroke="black" points="344.724,-334.517 346.811,-324.13 338.702,-330.949 344.724,-334.517"/>
</g>
<!-- initializer&#45;&gt;expression/exponential -->
<g id="edge40" class="edge"><title>initializer&#45;&gt;expression/exponential</title>
<path fill="none" stroke="black" d="M591,-647.697C591,-639.983 591,-630.712 591,-622.112"/>
<polygon fill="black" stroke="black" points="594.5,-622.104 591,-612.104 587.5,-622.104 594.5,-622.104"/>
</g>
<!-- cycle -->
<g id="node39" class="node"><title>cycle</title>
<ellipse fill="none" stroke="black" cx="800" cy="-594" rx="35.194" ry="18"/>
<text text-anchor="middle" x="800" y="-590.3" font-family="Times,serif" font-size="14.00">cycle</text>
</g>
<!-- initializer&#45;&gt;cycle -->
<g id="edge36" class="edge"><title>initializer&#45;&gt;cycle</title>
<path fill="none" stroke="black" d="M628.551,-652.727C661.007,-642.079 709.154,-626.189 751,-612 754.579,-610.786 758.301,-609.514 762.024,-608.234"/>
<polygon fill="black" stroke="black" points="763.47,-611.438 771.78,-604.867 761.185,-604.821 763.47,-611.438"/>
</g>
<!-- initializer&#45;&gt;logger -->
<g id="edge43" class="edge"><title>initializer&#45;&gt;logger</title>
<path fill="none" stroke="black" d="M636.728,-655.677C652.584,-652.771 670.516,-649.847 687,-648 770.021,-638.698 1365.11,-652.824 1438,-612 1509.33,-572.046 1527,-532.761 1527,-451 1527,-451 1527,-451 1527,-377 1527,-310.165 1448.65,-268.63 1398.33,-248.847"/>
<polygon fill="black" stroke="black" points="1399.57,-245.574 1388.98,-245.292 1397.08,-252.117 1399.57,-245.574"/>
</g>
<!-- settings&#45;&gt;error -->
<g id="edge45" class="edge"><title>settings&#45;&gt;error</title>
<path fill="none" stroke="black" d="M1256.68,-360.038C1259.82,-349.745 1263.41,-336.269 1265,-324 1274.6,-250.033 1268.82,-161.751 1264.83,-118.141"/>
<polygon fill="black" stroke="black" points="1268.3,-117.673 1263.86,-108.052 1261.33,-118.34 1268.3,-117.673"/>
</g>
<!-- settings&#45;&gt;Boost -->
<g id="edge44" class="edge"><title>settings&#45;&gt;Boost</title>
<path fill="none" stroke="black" d="M1241.17,-360.33C1229.81,-341.722 1209.97,-311.183 1189,-288 1139.52,-233.301 1101.36,-242.997 1063,-180 1051.61,-161.297 1046.4,-136.912 1044.01,-118.397"/>
<polygon fill="black" stroke="black" points="1047.47,-117.824 1042.91,-108.261 1040.51,-118.581 1047.47,-117.824"/>
</g>
<!-- expression/random_deviate&#45;&gt;random -->
<g id="edge46" class="edge"><title>expression/random_deviate&#45;&gt;random</title>
<path fill="none" stroke="black" d="M329.526,-288.153C284.85,-261.719 198.501,-210.63 151.115,-182.593"/>
<polygon fill="black" stroke="black" points="152.849,-179.552 142.46,-177.472 149.285,-185.577 152.849,-179.552"/>
</g>
<!-- expression/random_deviate&#45;&gt;expression -->
<g id="edge47" class="edge"><title>expression/random_deviate&#45;&gt;expression</title>
<path fill="none" stroke="black" d="M444.44,-291.875C535.073,-278.113 675.303,-256.819 756,-244.566"/>
<polygon fill="black" stroke="black" points="756.657,-248.007 766.018,-243.045 755.606,-241.086 756.657,-248.007"/>
</g>
<!-- probability_analysis&#45;&gt;parameter -->
<g id="edge49" class="edge"><title>probability_analysis&#45;&gt;parameter</title>
<path fill="none" stroke="black" d="M1095.02,-649.964C1066.54,-640.4 1030.06,-627.014 999,-612 971.343,-598.631 967.386,-589.915 940,-576 902.693,-557.045 889.97,-559.605 853,-540 815.18,-519.944 774.514,-492.201 747.812,-473.046"/>
<polygon fill="black" stroke="black" points="749.81,-470.171 739.655,-467.149 745.709,-475.844 749.81,-470.171"/>
</g>
<!-- probability_analysis&#45;&gt;fault_tree_analysis -->
<g id="edge48" class="edge"><title>probability_analysis&#45;&gt;fault_tree_analysis</title>
<path fill="none" stroke="black" d="M1184.5,-649.465C1212.46,-638.997 1249.53,-625.124 1279.24,-613.999"/>
<polygon fill="black" stroke="black" points="1280.48,-617.276 1288.61,-610.492 1278.02,-610.72 1280.48,-617.276"/>
</g>
<!-- ext -->
<g id="node23" class="node"><title>ext</title>
<ellipse fill="none" stroke="black" cx="1156" cy="-90" rx="27" ry="18"/>
<text text-anchor="middle" x="1156" y="-86.3" font-family="Times,serif" font-size="14.00">ext</text>
</g>
<!-- element -->
<g id="node24" class="node"><title>element</title>
<ellipse fill="none" stroke="black" cx="1156" cy="-162" rx="48.1917" ry="18"/>
<text text-anchor="middle" x="1156" y="-158.3" font-family="Times,serif" font-size="14.00">element</text>
</g>
<!-- element&#45;&gt;ext -->
<g id="edge50" class="edge"><title>element&#45;&gt;ext</title>
<path fill="none" stroke="black" d="M1156,-143.697C1156,-135.983 1156,-126.712 1156,-118.112"/>
<polygon fill="black" stroke="black" points="1159.5,-118.104 1156,-108.104 1152.5,-118.104 1159.5,-118.104"/>
</g>
<!-- element&#45;&gt;error -->
<g id="edge51" class="edge"><title>element&#45;&gt;error</title>
<path fill="none" stroke="black" d="M1178.74,-145.983C1194.59,-135.515 1215.87,-121.461 1232.95,-110.181"/>
<polygon fill="black" stroke="black" points="1235.04,-113.001 1241.45,-104.57 1231.18,-107.16 1235.04,-113.001"/>
</g>
<!-- element&#45;&gt;Boost -->
<g id="edge52" class="edge"><title>element&#45;&gt;Boost</title>
<path fill="none" stroke="black" d="M1132.1,-146.326C1114.93,-135.783 1091.63,-121.475 1073.03,-110.051"/>
<polygon fill="black" stroke="black" points="1074.67,-106.954 1064.32,-104.704 1071.01,-112.919 1074.67,-106.954"/>
</g>
<!-- config -->
<g id="node25" class="node"><title>config</title>
<ellipse fill="none" stroke="black" cx="194" cy="-450" rx="38.9931" ry="18"/>
<text text-anchor="middle" x="194" y="-446.3" font-family="Times,serif" font-size="14.00">config</text>
</g>
<!-- config&#45;&gt;xml -->
<g id="edge53" class="edge"><title>config&#45;&gt;xml</title>
<path fill="none" stroke="black" d="M194.247,-431.697C194.357,-423.983 194.49,-414.712 194.613,-406.112"/>
<polygon fill="black" stroke="black" points="198.112,-406.153 194.756,-396.104 191.113,-406.053 198.112,-406.153"/>
</g>
<!-- config&#45;&gt;env -->
<g id="edge54" class="edge"><title>config&#45;&gt;env</title>
<path fill="none" stroke="black" d="M178.021,-433.465C168.057,-423.778 155.093,-411.174 144.146,-400.531"/>
<polygon fill="black" stroke="black" points="146.561,-397.997 136.951,-393.536 141.681,-403.016 146.561,-397.997"/>
</g>
<!-- config&#45;&gt;settings -->
<g id="edge55" class="edge"><title>config&#45;&gt;settings</title>
<path fill="none" stroke="black" d="M231.421,-444.583C265.232,-440.737 316.386,-435.278 361,-432 713.744,-406.08 804.488,-435.237 1156,-396 1170.34,-394.4 1185.78,-391.953 1199.96,-389.41"/>
<polygon fill="black" stroke="black" points="1200.82,-392.809 1210.02,-387.552 1199.55,-385.925 1200.82,-392.809"/>
</g>
<!-- expression/exponential&#45;&gt;expression -->
<g id="edge56" class="edge"><title>expression/exponential&#45;&gt;expression</title>
<path fill="none" stroke="black" d="M594.523,-575.903C601.396,-545.223 618.639,-479.588 649,-432 685.68,-374.507 714.305,-376.36 758,-324 774.839,-303.822 791.542,-279.03 803.201,-260.742"/>
<polygon fill="black" stroke="black" points="806.286,-262.41 808.654,-252.083 800.363,-258.679 806.286,-262.41"/>
</g>
<!-- expression/test_event&#45;&gt;expression -->
<g id="edge57" class="edge"><title>expression/test_event&#45;&gt;expression</title>
<path fill="none" stroke="black" d="M1124.35,-503.959C1150.85,-461.868 1210.53,-351.779 1156,-288 1122.54,-248.867 979.084,-238.443 890.476,-235.782"/>
<polygon fill="black" stroke="black" points="890.312,-232.276 880.22,-235.501 890.12,-239.273 890.312,-232.276"/>
</g>
<!-- preprocessor&#45;&gt;pdag -->
<g id="edge58" class="edge"><title>preprocessor&#45;&gt;pdag</title>
<path fill="none" stroke="black" d="M1409.46,-432.411C1399.56,-423.041 1387.05,-411.211 1376.33,-401.067"/>
<polygon fill="black" stroke="black" points="1378.57,-398.368 1368.9,-394.038 1373.76,-403.453 1378.57,-398.368"/>
</g>
<!-- mocus -->
<g id="node30" class="node"><title>mocus</title>
<ellipse fill="none" stroke="black" cx="1464" cy="-738" rx="40.8928" ry="18"/>
<text text-anchor="middle" x="1464" y="-734.3" font-family="Times,serif" font-size="14.00">mocus</text>
</g>
<!-- mocus&#45;&gt;zbdd -->
<g id="edge59" class="edge"><title>mocus&#45;&gt;zbdd</title>
<path fill="none" stroke="black" d="M1461.34,-719.583C1456.79,-690.021 1447.13,-628.153 1438,-576 1436.52,-567.569 1434.83,-558.402 1433.26,-550.099"/>
<polygon fill="black" stroke="black" points="1436.67,-549.33 1431.36,-540.165 1429.8,-550.644 1436.67,-549.33"/>
</g>
<!-- expression/numerical&#45;&gt;expression/constant -->
<g id="edge60" class="edge"><title>expression/numerical&#45;&gt;expression/constant</title>
<path fill="none" stroke="black" d="M1038.24,-359.697C1038.79,-351.983 1039.45,-342.712 1040.06,-334.112"/>
<polygon fill="black" stroke="black" points="1043.56,-334.328 1040.78,-324.104 1036.57,-333.83 1043.56,-334.328"/>
</g>
<!-- reporter -->
<g id="node32" class="node"><title>reporter</title>
<ellipse fill="none" stroke="black" cx="1396" cy="-882" rx="50.0912" ry="18"/>
<text text-anchor="middle" x="1396" y="-878.3" font-family="Times,serif" font-size="14.00">reporter</text>
</g>
<!-- risk_analysis -->
<g id="node33" class="node"><title>risk_analysis</title>
<ellipse fill="none" stroke="black" cx="1259" cy="-810" rx="71.4873" ry="18"/>
<text text-anchor="middle" x="1259" y="-806.3" font-family="Times,serif" font-size="14.00">risk_analysis</text>
</g>
<!-- reporter&#45;&gt;risk_analysis -->
<g id="edge62" class="edge"><title>reporter&#45;&gt;risk_analysis</title>
<path fill="none" stroke="black" d="M1368.28,-866.834C1348.07,-856.512 1320.43,-842.387 1298,-830.927"/>
<polygon fill="black" stroke="black" points="1299.56,-827.792 1289.06,-826.359 1296.37,-834.026 1299.56,-827.792"/>
</g>
<!-- reporter&#45;&gt;xml_stream -->
<g id="edge63" class="edge"><title>reporter&#45;&gt;xml_stream</title>
<path fill="none" stroke="black" d="M1414.3,-865.122C1439.28,-842.731 1484.34,-799.707 1514,-756 1543.66,-712.299 1567.2,-655.004 1579.54,-621.868"/>
<polygon fill="black" stroke="black" points="1582.85,-622.996 1583,-612.402 1576.28,-620.591 1582.85,-622.996"/>
</g>
<!-- version -->
<g id="node42" class="node"><title>version</title>
<ellipse fill="none" stroke="black" cx="1606" cy="-810" rx="44.6926" ry="18"/>
<text text-anchor="middle" x="1606" y="-806.3" font-family="Times,serif" font-size="14.00">version</text>
</g>
<!-- reporter&#45;&gt;version -->
<g id="edge61" class="edge"><title>reporter&#45;&gt;version</title>
<path fill="none" stroke="black" d="M1431.62,-869.125C1467.82,-857.059 1523.94,-838.354 1562.69,-825.438"/>
<polygon fill="black" stroke="black" points="1564.25,-828.605 1572.63,-822.123 1562.04,-821.964 1564.25,-828.605"/>
</g>
<!-- risk_analysis&#45;&gt;event_tree_analysis -->
<g id="edge69" class="edge"><title>risk_analysis&#45;&gt;event_tree_analysis</title>
<path fill="none" stroke="black" d="M1312.98,-798.072C1336.21,-790.404 1361.18,-777.515 1375,-756 1383.65,-742.539 1382.86,-733.938 1375,-720 1338.71,-655.635 1258.21,-624.045 1195.58,-608.772"/>
<polygon fill="black" stroke="black" points="1196.23,-605.329 1185.69,-606.458 1194.63,-612.145 1196.23,-605.329"/>
</g>
<!-- risk_analysis&#45;&gt;random -->
<g id="edge68" class="edge"><title>risk_analysis&#45;&gt;random</title>
<path fill="none" stroke="black" d="M1190.42,-804.517C927.691,-785.502 0,-700.681 0,-451 0,-451 0,-451 0,-377 0,-299.366 60.2879,-223.379 94.6782,-186.349"/>
<polygon fill="black" stroke="black" points="97.255,-188.718 101.593,-179.052 92.1738,-183.904 97.255,-188.718"/>
</g>
<!-- risk_analysis&#45;&gt;importance_analysis -->
<g id="edge64" class="edge"><title>risk_analysis&#45;&gt;importance_analysis</title>
<path fill="none" stroke="black" d="M1259,-791.697C1259,-783.983 1259,-774.712 1259,-766.112"/>
<polygon fill="black" stroke="black" points="1262.5,-766.104 1259,-756.104 1255.5,-766.104 1262.5,-766.104"/>
</g>
<!-- risk_analysis&#45;&gt;model -->
<g id="edge66" class="edge"><title>risk_analysis&#45;&gt;model</title>
<path fill="none" stroke="black" d="M1187.69,-807.986C1097.14,-805.094 948.17,-794.443 911,-756 876.693,-720.518 880.471,-658.101 886.256,-622.299"/>
<polygon fill="black" stroke="black" points="889.764,-622.562 888.075,-612.102 882.873,-621.332 889.764,-622.562"/>
</g>
<!-- risk_analysis&#45;&gt;mocus -->
<g id="edge67" class="edge"><title>risk_analysis&#45;&gt;mocus</title>
<path fill="none" stroke="black" d="M1299.99,-795.003C1335.77,-782.785 1387.42,-765.15 1423.15,-752.948"/>
<polygon fill="black" stroke="black" points="1424.45,-756.203 1432.78,-749.659 1422.19,-749.578 1424.45,-756.203"/>
</g>
<!-- uncertainty_analysis -->
<g id="node34" class="node"><title>uncertainty_analysis</title>
<ellipse fill="none" stroke="black" cx="1027" cy="-738" rx="107.482" ry="18"/>
<text text-anchor="middle" x="1027" y="-734.3" font-family="Times,serif" font-size="14.00">uncertainty_analysis</text>
</g>
<!-- risk_analysis&#45;&gt;uncertainty_analysis -->
<g id="edge65" class="edge"><title>risk_analysis&#45;&gt;uncertainty_analysis</title>
<path fill="none" stroke="black" d="M1215.09,-795.751C1178.68,-784.766 1126.58,-769.045 1086.44,-756.934"/>
<polygon fill="black" stroke="black" points="1087.35,-753.554 1076.77,-754.016 1085.33,-760.256 1087.35,-753.554"/>
</g>
<!-- uncertainty_analysis&#45;&gt;probability_analysis -->
<g id="edge70" class="edge"><title>uncertainty_analysis&#45;&gt;probability_analysis</title>
<path fill="none" stroke="black" d="M1054.2,-720.588C1069.94,-711.091 1089.94,-699.02 1106.97,-688.741"/>
<polygon fill="black" stroke="black" points="1108.82,-691.715 1115.57,-683.552 1105.2,-685.722 1108.82,-691.715"/>
</g>
<!-- error&#45;&gt;STL -->
<g id="edge71" class="edge"><title>error&#45;&gt;STL</title>
<path fill="none" stroke="black" d="M1232.61,-80.5533C1220.18,-77.325 1205.49,-73.9532 1192,-72 986.023,-42.1796 324.122,-24.0994 156.741,-19.93"/>
<polygon fill="black" stroke="black" points="156.747,-16.4292 146.663,-19.681 156.574,-23.4271 156.747,-16.4292"/>
</g>
<!-- xml_stream&#45;&gt;error -->
<g id="edge72" class="edge"><title>xml_stream&#45;&gt;error</title>
<path fill="none" stroke="black" d="M1586.43,-575.997C1582.64,-549.399 1576,-496.303 1576,-451 1576,-451 1576,-451 1576,-233 1576,-116.147 1393.23,-94.9427 1306.57,-91.4561"/>
<polygon fill="black" stroke="black" points="1306.61,-87.9555 1296.5,-91.1135 1306.38,-94.9515 1306.61,-87.9555"/>
</g>
<!-- scram -->
<g id="node37" class="node"><title>scram</title>
<ellipse fill="none" stroke="black" cx="649" cy="-954" rx="39.7935" ry="18"/>
<text text-anchor="middle" x="649" y="-950.3" font-family="Times,serif" font-size="14.00">scram</text>
</g>
<!-- scram&#45;&gt;serialization -->
<g id="edge75" class="edge"><title>scram&#45;&gt;serialization</title>
<path fill="none" stroke="black" d="M655.849,-935.966C675.145,-887.979 730.057,-751.414 753.348,-693.491"/>
<polygon fill="black" stroke="black" points="756.703,-694.529 757.187,-683.945 750.208,-691.917 756.703,-694.529"/>
</g>
<!-- scram&#45;&gt;initializer -->
<g id="edge74" class="edge"><title>scram&#45;&gt;initializer</title>
<path fill="none" stroke="black" d="M645.546,-935.966C635.857,-888.192 608.364,-752.623 596.529,-694.266"/>
<polygon fill="black" stroke="black" points="599.927,-693.411 594.51,-684.306 593.067,-694.803 599.927,-693.411"/>
</g>
<!-- scram&#45;&gt;config -->
<g id="edge76" class="edge"><title>scram&#45;&gt;config</title>
<path fill="none" stroke="black" d="M609.381,-952.309C473.987,-948.893 38,-928.752 38,-811 38,-811 38,-811 38,-593 38,-529.614 109.305,-487.03 155.499,-466.093"/>
<polygon fill="black" stroke="black" points="156.907,-469.298 164.658,-462.074 154.094,-462.888 156.907,-469.298"/>
</g>
<!-- scram&#45;&gt;reporter -->
<g id="edge73" class="edge"><title>scram&#45;&gt;reporter</title>
<path fill="none" stroke="black" d="M687.589,-949.384C810.273,-937.887 1191.86,-902.13 1338.13,-888.423"/>
<polygon fill="black" stroke="black" points="1338.62,-891.893 1348.25,-887.475 1337.97,-884.923 1338.62,-891.893"/>
</g>
<!-- bdd -->
<g id="node43" class="node"><title>bdd</title>
<ellipse fill="none" stroke="black" cx="1308" cy="-450" rx="28.6953" ry="18"/>
<text text-anchor="middle" x="1308" y="-446.3" font-family="Times,serif" font-size="14.00">bdd</text>
</g>
<!-- zbdd&#45;&gt;bdd -->
<g id="edge77" class="edge"><title>zbdd&#45;&gt;bdd</title>
<path fill="none" stroke="black" d="M1403.61,-509.753C1383.34,-498.98 1354.81,-482.523 1334.11,-469.764"/>
<polygon fill="black" stroke="black" points="1335.82,-466.705 1325.48,-464.373 1332.11,-472.641 1335.82,-466.705"/>
</g>
<!-- cycle&#45;&gt;parameter -->
<g id="edge78" class="edge"><title>cycle&#45;&gt;parameter</title>
<path fill="none" stroke="black" d="M768.025,-586.458C727.524,-577.447 661.265,-560.038 647,-540 637.721,-526.966 639.828,-518.303 647,-504 653.834,-490.37 666.021,-479.349 678.39,-470.96"/>
<polygon fill="black" stroke="black" points="680.334,-473.872 686.92,-465.573 676.596,-467.954 680.334,-473.872"/>
</g>
<!-- cycle&#45;&gt;event_tree -->
<g id="edge79" class="edge"><title>cycle&#45;&gt;event_tree</title>
<path fill="none" stroke="black" d="M822.661,-579.998C840.549,-569.734 865.834,-555.226 886.417,-543.417"/>
<polygon fill="black" stroke="black" points="888.275,-546.386 895.207,-538.373 884.791,-540.314 888.275,-546.386"/>
</g>
<!-- logger&#45;&gt;error -->
<g id="edge81" class="edge"><title>logger&#45;&gt;error</title>
<path fill="none" stroke="black" d="M1347.59,-216.244C1337.22,-198.085 1319.78,-168.431 1303,-144 1296.31,-134.263 1288.48,-123.911 1281.46,-114.965"/>
<polygon fill="black" stroke="black" points="1284,-112.54 1275.05,-106.884 1278.52,-116.892 1284,-112.54"/>
</g>
<!-- logger&#45;&gt;Boost -->
<g id="edge80" class="edge"><title>logger&#45;&gt;Boost</title>
<path fill="none" stroke="black" d="M1320.54,-226.284C1251.59,-213.478 1108.14,-186.278 1099,-180 1076.77,-164.733 1061.28,-137.667 1052.12,-117.378"/>
<polygon fill="black" stroke="black" points="1055.28,-115.862 1048.13,-108.044 1048.84,-118.615 1055.28,-115.862"/>
</g>
<!-- bdd&#45;&gt;pdag -->
<g id="edge82" class="edge"><title>bdd&#45;&gt;pdag</title>
<path fill="none" stroke="black" d="M1318.21,-433.116C1323.77,-424.469 1330.77,-413.575 1337.04,-403.833"/>
<polygon fill="black" stroke="black" points="1340.05,-405.611 1342.52,-395.307 1334.17,-401.826 1340.05,-405.611"/>
</g>
<!-- bdd&#45;&gt;settings -->
<g id="edge84" class="edge"><title>bdd&#45;&gt;settings</title>
<path fill="none" stroke="black" d="M1295.35,-433.465C1288.18,-424.654 1279.04,-413.43 1270.92,-403.463"/>
<polygon fill="black" stroke="black" points="1273.44,-401.012 1264.41,-395.467 1268.01,-405.432 1273.44,-401.012"/>
</g>
<!-- bdd&#45;&gt;zbdd -->
<g id="edge83" class="edge"><title>bdd&#45;&gt;zbdd</title>
<path fill="none" stroke="black" d="M1330.67,-461.335C1350.73,-471.919 1379.74,-488.62 1400.96,-501.665"/>
<polygon fill="black" stroke="black" points="1399.19,-504.685 1409.53,-507.003 1402.89,-498.744 1399.19,-504.685"/>
</g>
<!-- expression&#45;&gt;element -->
<g id="edge85" class="edge"><title>expression&#45;&gt;element</title>
<path fill="none" stroke="black" d="M867.284,-222.971C930.427,-209.855 1040.56,-186.978 1105.01,-173.59"/>
<polygon fill="black" stroke="black" points="1105.87,-176.987 1114.95,-171.526 1104.45,-170.133 1105.87,-176.987"/>
</g>
</g>
</svg>
